<?xml version="1.0" encoding="UTF-8" standalone="no"?>
<!-- Generator: Adobe Illustrator 15.0.2, SVG Export Plug-In . SVG Version: 6.00 Build 0)  -->

<svg
   xmlns:dc="http://purl.org/dc/elements/1.1/"
   xmlns:cc="http://creativecommons.org/ns#"
   xmlns:rdf="http://www.w3.org/1999/02/22-rdf-syntax-ns#"
   xmlns:svg="http://www.w3.org/2000/svg"
   xmlns="http://www.w3.org/2000/svg"
   xmlns:sodipodi="http://sodipodi.sourceforge.net/DTD/sodipodi-0.dtd"
   xmlns:inkscape="http://www.inkscape.org/namespaces/inkscape"
   version="1.1"
   id="Layer_1"
   x="0px"
   y="0px"
   width="350.23395"
   height="343.21301"
   viewBox="0 0 350.23395 343.21301"
   enable-background="new 0 0 612 792"
   xml:space="preserve"
   inkscape:version="0.48.4 r9939"
   sodipodi:docname="General-MEicon.svg"><metadata
   id="metadata3067"><rdf:RDF><cc:Work
       rdf:about=""><dc:format>image/svg+xml</dc:format><dc:type
         rdf:resource="http://purl.org/dc/dcmitype/StillImage" /><dc:title></dc:title></cc:Work></rdf:RDF></metadata><defs
   id="defs3065" /><sodipodi:namedview
   pagecolor="#ffffff"
   bordercolor="#666666"
   borderopacity="1"
   objecttolerance="10"
   gridtolerance="10"
   guidetolerance="10"
   inkscape:pageopacity="0"
   inkscape:pageshadow="2"
   inkscape:window-width="1680"
   inkscape:window-height="1028"
   id="namedview3063"
   showgrid="false"
   showborder="false"
   fit-margin-top="0"
   fit-margin-left="0"
   fit-margin-right="0"
   fit-margin-bottom="0"
   inkscape:zoom="0.90509668"
   inkscape:cx="66.404449"
   inkscape:cy="106.61426"
   inkscape:window-x="-8"
   inkscape:window-y="-8"
   inkscape:window-maximized="1"
   inkscape:current-layer="Layer_1" />
<g
   id="g3051"
   transform="translate(-130.527,-214.744)"
   style="fill:#ffffff">
	<path
   clip-rule="evenodd"
   d="m 208.207,214.744 c 1.85,0 3.699,0 5.549,0 18.938,5.15 14.209,27.552 14.267,53.9 0.036,16.398 3.855,34.713 -0.792,45.181 -4.037,9.093 -18.223,11.833 -26.95,8.719 -15.892,-5.672 -10.305,-31.636 -10.305,-53.9 0,-26.945 -5.29,-51.133 18.231,-53.9 z"
   id="path3053"
   inkscape:connector-curvature="0"
   style="fill-rule:evenodd;fill:#ffffff" />
	<path
   clip-rule="evenodd"
   d="m 403.197,214.744 c 1.85,0 3.699,0 5.549,0 18.579,5.043 14.203,27.039 14.268,52.314 0.041,16.206 3.999,36.159 -0.793,46.767 -3.743,8.287 -16.849,12.287 -26.949,8.719 -16.326,-5.767 -10.305,-31.126 -10.305,-53.9 0,-25.684 -5.695,-51.326 18.23,-53.9 z"
   id="path3055"
   inkscape:connector-curvature="0"
   style="fill-rule:evenodd;fill:#ffffff" />
	<path
   clip-rule="evenodd"
   d="m 465.023,516.742 c -25.725,20.502 -68.498,16.045 -87.982,-0.793 -15.795,-13.648 -22.9,-39.068 -22.987,-61.033 -0.178,-44.61 22.958,-75.68 64.997,-76.095 29.391,-0.29 49.111,12.338 60.24,32.499 -2.094,-12.757 -1.179,-29.26 -0.092,-46.265 -0.196,-0.088 -0.393,-0.177 -0.587,-0.27 -0.038,-0.019 -0.074,-0.044 -0.112,-0.065 v 0.627 h -7.928 v -8.72 h 7.928 v 0.129 c 0.385,-0.242 0.793,-0.448 1.236,-0.57 0.009,-0.003 0.019,-0.002 0.027,-0.005 2.64,-42.495 3.302,-84.621 -41.689,-76.441 -0.955,31.775 1.516,62.52 -26.95,67.375 -37.722,6.434 -43.146,-33.482 -38.839,-67.375 H 243.083 c -2.241,18.194 2.395,36.595 -4.756,51.522 -7.643,15.957 -36.453,22.288 -50.729,8.719 -12.174,-11.572 -11.299,-34.173 -11.097,-59.449 -27.956,-4.933 -45.586,7.23 -45.974,32.499 v 19.024 c 1.533,7.051 0.5,16.667 1.445,24.306 0.18,-0.019 0.367,-0.029 0.56,-0.029 0.388,-0.099 0.806,-0.157 1.263,-0.157 0.143,0 0.277,0.01 0.413,0.02 0.099,-0.005 0.19,-0.02 0.292,-0.02 0.151,0 0.296,0.01 0.439,0.021 0.091,-0.005 0.173,-0.021 0.267,-0.021 0.607,0 1.151,0.098 1.637,0.267 1.992,-0.231 3.876,0.002 3.988,1.771 2.121,5.701 -0.657,6.501 -3.734,7.005 -0.546,0.231 -1.175,0.366 -1.891,0.366 -0.071,0 -0.138,-0.007 -0.208,-0.01 -1.174,0.24 -2.23,0.598 -2.886,1.357 v 38.047 c 13.578,-25.763 76.187,-35.77 102.252,-11.889 23.575,-21.199 74.752,-16.116 93.532,3.963 24.833,26.551 7.22,85.161 12.683,130.786 -17.392,1.011 -33.578,0.108 -36.463,-13.475 -4.914,-23.145 5.774,-68.614 -1.585,-90.362 -5.919,-17.492 -42.91,-21.811 -49.937,0 -4.43,13.751 -0.793,34.765 -0.793,51.522 0,18.353 0.654,35.924 -0.792,52.314 -11.892,-0.526 -25.891,1.054 -36.463,-0.792 v -53.9 c 0,-16.459 3.422,-39.759 -2.377,-51.521 -7.277,-14.76 -33.606,-16.887 -44.388,-4.756 -8.374,9.418 -5.55,35.528 -5.55,57.07 0,20.281 0.623,40.23 -0.791,53.899 h -29.329 c -0.137,17.839 10.218,25.188 22.987,30.12 h 304.376 c 21.821,-4.336 21.274,-31.039 20.608,-57.863 -4.97,3.955 -9.369,12.114 -15.059,16.648 z M 435.696,356.627 h 16.646 v 8.72 h -16.646 v -8.72 z m -34.084,0 h 15.853 v 8.72 h -15.853 v -8.72 z m -34.876,0 h 16.646 v 8.72 h -16.646 v -8.72 z m -191.028,8.72 h -16.646 v -8.72 h 16.646 v 8.72 z m 34.085,0 h -16.646 v -8.72 h 16.646 v 8.72 z m 34.875,0 h -16.646 v -8.72 h 16.646 v 8.72 z m 34.877,0 h -16.646 v -8.72 h 16.646 v 8.72 z m 34.084,0 h -16.646 v -8.72 h 16.646 v 8.72 z m 34.876,0 h -16.646 v -8.72 h 16.646 v 8.72 z"
   id="path3057"
   inkscape:connector-curvature="0"
   style="fill-rule:evenodd;fill:#ffffff" />
	<path
   clip-rule="evenodd"
   d="m 449.171,440.648 c -18.759,0 -37.519,0 -56.277,0 -5.73,-39.757 62.06,-39.669 56.277,0 z"
   id="path3059"
   inkscape:connector-curvature="0"
   style="fill-rule:evenodd;fill:#ffffff" />
	<path
   clip-rule="evenodd"
   d="m 479.291,464.427 c 0,6.342 0,12.683 0,19.024 -7.086,0.637 -19.133,-1.191 -26.157,0.792 -5.984,1.69 -9.718,9.754 -16.645,12.683 -21.646,9.15 -44.006,-3.104 -43.596,-30.121 0,-0.792 0,-1.585 0,-2.378 28.8,0 57.599,0 86.398,0 z"
   id="path3061"
   inkscape:connector-curvature="0"
   style="fill-rule:evenodd;fill:#ffffff" />
</g>
</svg>