<?xml version="1.0" encoding="utf-8"?>
<!-- Generator: Adobe Illustrator 15.0.2, SVG Export Plug-In . SVG Version: 6.00 Build 0)  -->
<!DOCTYPE svg PUBLIC "-//W3C//DTD SVG 1.1//EN" "http://www.w3.org/Graphics/SVG/1.1/DTD/svg11.dtd">
<svg version="1.1" id="Layer_1" xmlns="http://www.w3.org/2000/svg" xmlns:xlink="http://www.w3.org/1999/xlink" x="0px" y="0px"
	 width="612px" height="792px" viewBox="0 0 612 792" enable-background="new 0 0 612 792" xml:space="preserve">
<g>
	<path fill-rule="evenodd" clip-rule="evenodd" fill="#FFFFFF" d="M156.168,244.394c100.84,0,201.677,0,302.517,0
		c0,101.322,0,202.642,0,303.965c-101.322,0-202.641,0-303.964,0c0-99.874,0-199.749,0-299.623
		C154.597,246.682,154.482,244.637,156.168,244.394z M321.178,338.478c-32.105,36.888-77.428,80.932-114.348,121.586
		c-10.292,11.332-38.072,28.232-37.634,41.976c0.442,13.896,22.708,20.797,28.949,28.949
		c38.337-41.085,77.637-79.126,117.244-121.586c10.182-10.915,31.17-35.907,41.977-37.634c5.148-0.823,11.873,2.686,15.922,2.895
		c39.725,2.047,65.727-28.536,59.345-70.925c-14.747,9.377-24.118,24.13-39.081,33.291c-12.969-14.938-39.631-22.582-34.738-47.766
		c2.916-15.013,21.926-19.158,27.501-34.739C332.967,249.586,309.994,288.292,321.178,338.478z"/>
	<path fill-rule="evenodd" clip-rule="evenodd" d="M386.313,254.526c-12.647,12.641-24.585,19.726-27.501,34.739
		c-4.893,25.184,34.738,47.766,34.738,47.766s24.812-22.528,39.081-33.291c6.382,42.389-19.62,72.972-59.345,70.925
		c-4.049-0.208-10.773-3.717-15.922-2.895c-10.807,1.727-31.795,26.719-41.977,37.634c-39.607,42.46-78.907,80.501-117.244,121.586
		c-6.241-8.152-28.506-15.053-28.949-28.949c-0.438-13.743,27.341-30.644,37.634-41.976c36.92-40.654,82.243-84.699,114.348-121.586
		C309.994,288.292,332.967,249.586,386.313,254.526z M198.145,515.067c11.751-1.377,15.93-23.12,4.343-30.396
		C174.249,479.545,180.471,517.139,198.145,515.067z"/>
	<path fill-rule="evenodd" clip-rule="evenodd" fill="#FFFFFF" d="M202.487,484.671c11.587,7.276,7.408,29.02-4.343,30.396
		C180.471,517.139,174.249,479.545,202.487,484.671z"/>
</g>
</svg>
