<?xml version="1.0" encoding="utf-8"?>
<!-- Generator: Adobe Illustrator 15.0.2, SVG Export Plug-In . SVG Version: 6.00 Build 0)  -->
<!DOCTYPE svg PUBLIC "-//W3C//DTD SVG 1.1//EN" "http://www.w3.org/Graphics/SVG/1.1/DTD/svg11.dtd">
<svg version="1.1" id="Layer_1" xmlns="http://www.w3.org/2000/svg" xmlns:xlink="http://www.w3.org/1999/xlink" x="0px" y="0px"
	 width="612px" height="792px" viewBox="0 0 612 792" enable-background="new 0 0 612 792" xml:space="preserve">
<path fill-rule="evenodd" clip-rule="evenodd" d="M153.072,465.523c-2.924-47.069,2.99-84.855,20.566-114.741
	c27.41-46.606,91.197-84.329,148.298-88.762c40.298-3.128,75.93,13.432,98.505,32.474c22.379,18.876,40.679,53.765,41.133,89.845
	c0.496,39.306-15.197,77.487-38.969,102.834c-22.705,24.211-56.944,45.986-99.586,42.216c-35.673-3.153-47.892-29.467-54.124-64.947
	c-3.337-19.002-6.975-41.438-30.309-42.217c-32.146-1.071-27.677,34.432-49.793,42.217
	C179.431,467.736,169.643,464.279,153.072,465.523z M325.184,315.061c-3.121-2.959-19.367-12.531-22.731-12.99
	c-7.89-1.076-20.207,6.111-24.896,12.99c-9.223,13.527-1.449,34.983,10.825,42.216c-1.399,2.209-5.248,1.969-4.33,6.495
	c1.589,4.185,4.336,7.21,10.825,6.495c3.225-1.105,0.95-7.71,3.248-9.742C335.264,369.885,341.736,330.751,325.184,315.061z
	 M358.74,375.679c12.924,12.923,46.01,15.954,53.041-6.495c8.818-28.152-29.361-57.286-56.288-50.876
	C329.805,324.424,350.369,367.308,358.74,375.679z M202.865,371.349c2.465,29.561,54.755,28.661,56.289-1.083
	c0.98-19.014-14.752-27.163-32.474-24.896C209.089,347.62,201.597,356.134,202.865,371.349z M298.123,370.267
	c0,1.443,0,2.887,0,4.33c2.061,0.464,2.719,2.332,5.412,2.165c0.229-1.214,1.202-1.685,2.165-2.165
	c0.895-3.06-1.526-2.804-1.083-5.413C301.949,369.042,299.402,369.02,298.123,370.267z M377.143,420.061
	c3.462,10.893,36.756,10,38.969-4.33c1.911-12.381-9.056-17.803-22.732-15.154C385.402,402.12,373.094,407.319,377.143,420.061z
	 M301.37,454.699c3.624,13.758,21.523,24.55,35.722,23.814c37.146-1.926,36.274-66.816-6.496-60.619
	C310.625,420.789,295.931,434.048,301.37,454.699z M385.803,457.946c-0.647,7.503,3.764,9.947,10.824,9.742
	c2.828-1.899,2.551-7.546,1.082-10.825C394.326,455.408,387.753,454.964,385.803,457.946z M369.564,472.019
	c0.24-0.844,0.907-1.259,2.166-1.083c0.572-4.902-1.593-7.066-6.495-6.494C364.811,468.836,365.631,471.983,369.564,472.019z"/>
</svg>
