<?xml version="1.0" encoding="utf-8"?>
<!-- Generator: Adobe Illustrator 15.0.2, SVG Export Plug-In . SVG Version: 6.00 Build 0)  -->
<!DOCTYPE svg PUBLIC "-//W3C//DTD SVG 1.1//EN" "http://www.w3.org/Graphics/SVG/1.1/DTD/svg11.dtd">
<svg version="1.1" id="Layer_1" xmlns="http://www.w3.org/2000/svg" xmlns:xlink="http://www.w3.org/1999/xlink" x="0px" y="0px"
	 width="612px" height="646.578px" viewBox="0 0 612 646.578" enable-background="new 0 0 612 646.578" xml:space="preserve">
<path d="M416.554,431.559c-0.763,1.547-1.485,3.113-2.168,4.697C415.102,434.687,415.824,433.122,416.554,431.559z"/>
<path fill-rule="evenodd" clip-rule="evenodd" d="M501.039,65.61c11.893-5.153,31.142-12.54,45.52-4.902
	c25.543,13.568,26.612,64.051,26.612,103.646c0,32.631-1.652,62.299-5.603,91.74c-1.288,9.599-5.209,22.36-4.202,28.012
	c0.928,5.195,17.421,18.436,21.01,23.81c9.383,14.052,15.02,36.655,6.303,56.725c-2.624,6.041-6.775,13.791-11.205,16.808
	c-5.952,4.052-15.204,3.438-18.908,9.804c0.845,16.812-0.861,36.887-18.909,37.116c-8.594-27.636,6.262-59.246,28.013-67.229
	c10.925-17.604,4.405-46.617-10.505-54.624c-25.702,107.386-64.249,205.526-150.565,254.211
	c-13.631,7.688-30.808,14.806-49.723,17.508c-9.614,1.374-18.995,2.777-28.712,4.901c-52.177,11.413-96.685-9.989-127.456-34.314
	c-75.271-59.505-113.787-155.793-137.96-265.417c-2.648,5.875-8.013,15.249-5.603,25.912c0.984,4.352,6.423,7.819,9.104,13.306
	c9.533,19.513,5.818,50.907-7.003,62.327c-11.868-3.316-11.998-14.446-9.805-26.611c1.05-5.824,5.095-11.466,4.902-15.407
	c-0.38-7.768-11.907-12.193-14.706-18.208c-11.935-25.651,4.284-52.887,18.908-65.829c-4.478-44.375-22.762-146.388,4.902-180.679
	c11.984-14.854,39.477-10.743,56.725-0.7c7.115-12.12,13.184-22.506,28.713-23.811c16.396-1.377,32.127,7.773,44.819,14.707
	c33.215,18.144,59.695,37.88,98.043,51.123c7.528,2.599,16.638,6.398,23.109,6.303c11.658-0.171,28.705-10.47,40.619-16.807
	c12.892-6.859,24.755-13.458,36.416-21.009c23.51-15.225,47.963-34.903,73.532-40.618C485.172,43.436,495.264,53.069,501.039,65.61z
	 M195.705,76.815c-20.217-11.337-56.942-28.009-65.829,3.501c48.145,22.136,99.563,61.201,170.875,49.021
	C263.625,119.333,227.873,94.854,195.705,76.815z M477.93,429.07c-23.337,58.136-56.426,107.923-107.848,138.66
	c-0.389-0.002-0.795,0.566,0,0.7c86.94-28.77,133.552-105.505,163.872-196.786c21.454-64.596,36.476-148.255,30.813-236.704
	c-1.771-27.652-5.333-59.675-22.41-67.93c-12.522-6.054-26.906,1.378-37.816,4.902c12.884,34.97,14.858,80.85,15.406,128.156
	c6.832,5.006,12.844,7.941,18.208,13.306c13.274,13.273,24.298,40.172,14.007,62.327c-2.824,6.079-15.151,11.136-15.407,18.909
	c-0.083,2.501,2.977,6.859,4.202,11.205c3.692,13.097,4.711,28.999-9.805,32.214c-11.684-15.602-16.706-42.999-7.003-63.728
	c2.431-5.193,8.625-8.938,9.805-13.306c2.039-7.555-0.559-18.222-2.802-23.811c-2.249-5.602-8.176-14.002-11.905-13.306
	C517.524,302.15,501.238,371.003,477.93,429.07z M409.299,179.06c-33.94-20.656-77.236,14.061-98.043,27.312
	c35.176,10.812,76.357,15.616,114.851,23.11C425.655,206.255,423.272,187.564,409.299,179.06z M149.485,197.968
	c-10.182,9.886-10.72,29.23-8.404,49.021c38.351-10.204,76.117-20.992,111.349-34.315
	C231.657,198.25,176.139,172.087,149.485,197.968z M391.091,321.923c-30.501,6.732-54.171,32.271-90.34,35.015
	c-20.833,1.581-44.004-3.927-58.825-8.404c-13.239-3.998-40.456-17.732-53.924-12.605c-7.148,2.721-9.973,15.098-10.504,24.51
	c-1.818,32.176,17.42,61.719,29.413,75.633c19.484,22.607,56.734,41.575,100.143,40.619c31.634-0.697,59.405-18.272,77.734-37.817
	c17.965-19.155,31.61-46.743,31.514-84.737c-0.021-8.501,0.487-24.904-7.703-30.813c-4.049-2.921-12.881-1.927-16.107-1.4
	C392.041,321.997,391.535,321.825,391.091,321.923z"/>
</svg>
