<?xml version="1.0" encoding="utf-8"?>
<!-- Generator: Adobe Illustrator 15.0.2, SVG Export Plug-In . SVG Version: 6.00 Build 0)  -->
<!DOCTYPE svg PUBLIC "-//W3C//DTD SVG 1.1//EN" "http://www.w3.org/Graphics/SVG/1.1/DTD/svg11.dtd">
<svg version="1.1" id="Layer_1" xmlns="http://www.w3.org/2000/svg" xmlns:xlink="http://www.w3.org/1999/xlink" x="0px" y="0px"
	 width="612px" height="792px" viewBox="0 0 612 792" enable-background="new 0 0 612 792" xml:space="preserve">
<g>
	<path fill-rule="evenodd" clip-rule="evenodd" fill="#FFFFFF" d="M137.5,219.651c113.32,0,226.636,0,339.957,0
		c0,110.986,0,221.973,0,332.958c-113.652,0-227.305,0-340.957,0c0-109.986,0-219.973,0-329.958
		C136.414,221.232,136.335,219.819,137.5,219.651z M294.48,229.65c-21.267,12.062-42.15,24.509-62.992,36.995
		c0.645,4.354-1.304,11.303,1,13.998c5.887-3.122,13.561-9.756,18.998-9.999c0,13.332,0,26.664,0,39.995
		c-37.921,21.072-74.804,43.181-111.986,64.992c0,4.333,0,8.666,0,12.999c10.907-3.43,19.946-14.043,28.997-15.998
		c-0.521,34.379-1,62.563-1,98.988c0,18.235-4.325,46.292,1,57.993c10.631,23.359,76.216,5.163,107.986,10.998
		c-2.48-26.238-0.553-69.857-2-100.987c-1.623-34.905,19.23-30.612,53.994-29.997c0.812,43.516,0.979,87.677,1.999,130.984
		c35.329,0,70.657,0,105.987,0c1.011-56.683-1.568-115.067,0-168.979c9.029,4.303,16.361,10.302,25.996,13.999
		c-0.982-4.016-1.225-8.774-1-13.999c-39.047-19.611-77.142-40.177-114.985-60.992c-0.643-13.355-1.411-26.585-0.999-40.995
		c6.284,3.38,12.385,6.945,18.997,9.999c0-5.666,0-11.332,0-16.998C339.851,252.938,319.172,239.288,294.48,229.65z"/>
	<path fill-rule="evenodd" clip-rule="evenodd" d="M364.472,262.646c0,5.666,0,11.332,0,16.998
		c-6.612-3.054-12.713-6.619-18.997-9.999c-0.412,14.41,0.356,27.64,0.999,40.995c37.844,20.815,75.938,41.381,114.985,60.992
		c-0.225,5.225,0.018,9.982,1,13.999c-9.635-3.696-16.967-9.696-25.996-13.999c-1.568,53.912,1.011,112.296,0,168.979
		c-35.33,0-70.658,0-105.987,0c-1.021-43.308-1.187-87.469-1.999-130.984c-34.764-0.615-52.977-6.127-53.994,29.997
		c1.447,31.13-0.481,74.749,2,100.987C186.937,540.661,176,547,168.496,529.613c-5.325-11.701-1-39.758-1-57.993
		c0-36.425,0.479-64.608,1-98.988c-9.05,1.955-18.09,12.568-28.997,15.998c0-4.333,0-8.666,0-12.999
		c37.182-21.811,74.065-43.92,111.986-64.992c0-13.332,0-26.664,0-39.995c-5.437,0.243-13.111,6.876-18.998,9.999
		c-2.304-2.695-0.355-9.644-1-13.998c20.842-12.486,41.725-24.933,62.992-36.995C319.172,239.288,339.851,252.938,364.472,262.646z
		 M295.48,243.648c-9.338,6.993-22.029,10.633-29.996,18.998c2.577,15.709-2.738,27.593,7.999,34.996
		c12.72,8.77,37.394-0.973,56.993,1c0-12.665,0-25.33,0-37.995C317.658,256.132,308.154,248.305,295.48,243.648z M360.473,413.627
		c-11.742,12.52-0.139,38.381-4,61.992c16.938,0.378,29.883-0.096,47.994,0c-0.928-22.07-0.785-45.209-2-66.991
		C383.832,410.307,369.316,404.195,360.473,413.627z M213.49,410.627c-22.966,5.348-11.365,40.859-12.998,64.992
		c15.665,0,31.329,0,46.994,0c1.708-20.289,0.771-43.224,1-64.992C235.119,412.24,222.864,408.445,213.49,410.627z"/>
	<path fill-rule="evenodd" clip-rule="evenodd" fill="#FFFFFF" d="M330.476,260.646c0,12.665,0,37.995,0,37.995
		s-44.273,7.77-56.993-1c-10.737-7.402-7.999-34.996-7.999-34.996s17.887-10.85,29.996-18.998
		C308.154,248.305,317.658,256.132,330.476,260.646z M300.479,253.647c-15.935-3.046-20.207,22.897-25.997,35.996
		c5.833,0.167,9.586-1.745,15.998-1c2.094,3.572,4.007,7.325,8.999,7.999c3.649-1.35,4.021-5.978,6-8.999
		c5.927,0.738,11.285,2.046,17.998,2C317.818,280.481,310.829,255.625,300.479,253.647z"/>
	<path fill-rule="evenodd" clip-rule="evenodd" d="M323.477,289.643c-6.713,0.047-12.07-1.262-17.998-2
		c-1.978,3.021-2.35,7.648-6,8.999c-4.992-0.674-6.905-4.427-8.999-7.999c-6.412-0.745-10.165,1.167-15.998,1
		c5.79-13.099,10.062-39.042,25.997-35.996C310.829,255.625,317.818,280.481,323.477,289.643z"/>
	<path fill-rule="evenodd" clip-rule="evenodd" fill="#FFFFFF" d="M402.467,408.628c0,0,1.072,44.921,2,66.991
		c-18.111-0.096-31.056,0.378-47.994,0c0.175-23.416-4.473-47.968,4-61.992C369.316,404.195,402.467,408.628,402.467,408.628z"/>
	<path fill-rule="evenodd" clip-rule="evenodd" fill="#FFFFFF" d="M248.486,410.627c0,0-0.08,44.393-1,64.992
		c-15.665,0-31.33,0-46.994,0c1.633-24.133-9.968-59.645,12.998-64.992C222.864,408.445,248.486,410.627,248.486,410.627z"/>
	<path fill-rule="evenodd" clip-rule="evenodd" fill="#FFFFFF" d="M360.473,413.627c8.844-9.432,18.527-5.627,41.994-4.999
		c0.182,7.368,1.072,44.921,2,66.991"/>
	<path fill-rule="evenodd" clip-rule="evenodd" fill="#FFFFFF" d="M360.473,413.627c8.844-9.432,41.994-4.999,41.994-4.999
		s1.072,44.921,2,66.991"/>
	<path fill-rule="evenodd" clip-rule="evenodd" fill="#FFFFFF" d="M402.467,408.628c0.227,9.11,1.072,44.921,2,66.991"/>
	<path fill-rule="evenodd" clip-rule="evenodd" fill="#FFFFFF" d="M360.473,413.627c8.844-9.432,41.994-4.999,41.994-4.999
		s1.072,44.921,2,66.991"/>
</g>
</svg>
