<?xml version="1.0" encoding="utf-8"?>
<!-- Generator: Adobe Illustrator 15.0.2, SVG Export Plug-In . SVG Version: 6.00 Build 0)  -->
<!DOCTYPE svg PUBLIC "-//W3C//DTD SVG 1.1//EN" "http://www.w3.org/Graphics/SVG/1.1/DTD/svg11.dtd">
<svg version="1.1" id="Layer_1" xmlns="http://www.w3.org/2000/svg" xmlns:xlink="http://www.w3.org/1999/xlink" x="0px" y="0px"
	 width="612px" height="792px" viewBox="0 0 612 792" enable-background="new 0 0 612 792" xml:space="preserve">
<path fill-rule="evenodd" clip-rule="evenodd" d="M394.836,400.436c5.178,0,10.354,0,15.532,0c0,4.707,0,9.413,0,14.119
	c27.478,6.561,38.563-14.937,57.183-21.885c0,34.357,0,68.715,0,103.071c-19.758-6.647-28.393-27.219-57.183-22.591
	c0,18.826,0,37.652,0,56.478c-46.438,0-185.221,2.808-199.083,0c-11.07-2.243-14.853-11.613-15.842-23.787
	c-1.313-16.156,2.293-37.249,0.311-53.163c-10.769-7.145-13.53,7.135-19.767,6.354c-4.406-0.553-8.156-12.535-9.884-16.238
	c-3.284-7.035-6.245-12.115-7.766-18.354c15.242-1.807,23.58,9.95,36.71,5.647c1.163-8.613-9.919-9.189-14.825-12.001
	c-17.143-9.824-34.989-29.978-31.769-61.419c6.101-59.559,87.904-74.692,115.779-24.709c2.674-0.385,4.41-1.708,7.766-1.412
	c9.075-33.729,29.134-58.988,66.361-62.831C414.995,259.801,447.311,356.625,394.836,400.436z M324.239,308.66
	c-21.913,14.171-22.503,54.799,4.236,67.067c27.103,12.435,52.993-7.979,55.065-30.356c2.241-24.202-17.584-44.887-43.064-41.652
	C334.097,304.528,328.994,305.585,324.239,308.66z M189.399,383.492c23.418,22.021,61.702-3.088,49.418-35.298
	c-4.654-12.203-18.055-19.151-33.181-16.943C180.785,334.878,171.107,366.292,189.399,383.492z M279.764,379.962
	c-3.004,1.232-6.587,1.885-10.59,2.118c-1.431,7.511-5.375,12.509-8.472,18.355c12.002,0,24.003,0,36.005,0
	C292.823,394.667,285.664,386.066,279.764,379.962z"/>
<path fill-rule="evenodd" clip-rule="evenodd" d="M339.771,315.013c4.653-1.514,8.978,0.786,8.472,6.354
	C347.058,334.432,326.17,319.439,339.771,315.013z"/>
<path fill-rule="evenodd" clip-rule="evenodd" d="M363.773,326.309c4.707,3.837,3.242,11.479-2.117,12.001
	C353.727,339.083,350.107,323.763,363.773,326.309z"/>
<path fill-rule="evenodd" clip-rule="evenodd" d="M332.005,331.957c1.886,3.665,1.049,7.818-1.411,10.589
	C317.533,347.411,320.177,323.991,332.005,331.957z"/>
<path fill-rule="evenodd" clip-rule="evenodd" d="M206.343,339.722c8.255-2.251,6.731,9.156,2.118,9.884
	C203.435,350.399,199.046,341.712,206.343,339.722z"/>
<path fill-rule="evenodd" clip-rule="evenodd" d="M364.479,350.312c3.553,12.007-15.687,12.343-12.001,0
	C354.703,346.675,362.255,346.675,364.479,350.312z"/>
<path fill-rule="evenodd" clip-rule="evenodd" d="M222.58,348.9c2.717-0.454,5.157,0.162,5.648,3.53
	C230.407,367.389,207.369,351.441,222.58,348.9z"/>
<path fill-rule="evenodd" clip-rule="evenodd" d="M329.888,353.842c2.578-2.379,7.087-3.684,10.589-1.412
	C347.807,363.714,327.13,368.485,329.888,353.842z"/>
<path fill-rule="evenodd" clip-rule="evenodd" d="M200.695,354.547c0.342,3.637-0.672,5.917-2.118,7.766
	c-5.663,0.721-8.049-1.834-7.766-7.06C192.375,352.293,198.717,351.244,200.695,354.547z"/>
<path fill-rule="evenodd" clip-rule="evenodd" d="M216.227,373.609c-0.875-16.542,16.863-1.667,7.06,2.118
	C220.18,376.926,218.114,375.168,216.227,373.609z"/>
<path fill-rule="evenodd" clip-rule="evenodd" d="M206.343,370.079c2.916,3.513,0.755,8.489-2.118,9.177
	C196.098,381.205,195.018,365.144,206.343,370.079z"/>
</svg>
