<?xml version="1.0" encoding="utf-8"?>
<!-- Generator: Adobe Illustrator 15.0.2, SVG Export Plug-In . SVG Version: 6.00 Build 0)  -->
<!DOCTYPE svg PUBLIC "-//W3C//DTD SVG 1.1//EN" "http://www.w3.org/Graphics/SVG/1.1/DTD/svg11.dtd">
<svg version="1.1" id="Layer_1" xmlns="http://www.w3.org/2000/svg" xmlns:xlink="http://www.w3.org/1999/xlink" x="0px" y="0px"
	 width="612px" height="574.472px" viewBox="0 0 612 574.472" enable-background="new 0 0 612 574.472" xml:space="preserve">
<g>
	<path fill-rule="evenodd" clip-rule="evenodd" d="M146.159,7.757c46.456-7.025,32.874,55.346,35.75,94.038
		c1.793,24.121,6.609,57.621-5.44,72.277c-12.232,14.878-44.489,11.892-53.625-1.554c-7.416-10.914-5.775-37.901-5.44-59.843
		C118.129,65.169,107.954,13.534,146.159,7.757z"/>
	<path fill-rule="evenodd" clip-rule="evenodd" d="M461.693,7.757c40.438-5.937,34.195,40.326,34.195,77.717
		c0,44.881,16.89,100.044-32.642,99.479c-44.847-0.512-29.043-60.946-30.31-106.473C431.896,41.04,431.253,12.226,461.693,7.757z"/>
	<path fill-rule="evenodd" clip-rule="evenodd" d="M587.596,235.47c-2.546,3.153-11.236,0.162-14.767,2.331
		c0,3.627,0,7.254,0,10.881c2.892,3.92,10.805-1.632,13.989,2.332c-2.255,85.317,1.277,162.097-3.108,244.033
		c-1.146,21.4-4.588,54.568-19.43,62.952c-12.08,6.823-41.025,4.662-61.396,4.662c-111.685,0-214.309,0-326.415,0
		c-20.087,0-42.396-0.914-65.283,0c-40.983,1.64-67.812,1.825-81.604-25.646c-8.474-16.879-4.663-50.618-4.663-76.163
		c0-56.736,0-111.239,0-170.979c0-11.597-2.318-27.141,0-34.196c2.348-7.145,14.057-2.759,14.767-11.657
		c0.694-8.711-7.757-6.958-15.544-8.549c-0.91-45.143-10.862-99.507,21.761-117.354c11.77-6.439,33.426-8.687,52.071-4.663
		c-0.452,44.294-2.163,86.274,24.87,101.811c26.686,15.337,65.348,1.909,75.386-21.761c9.742-22.972,1.227-53.799,6.217-81.604
		c69.688,0,139.373,0,209.061,0c-3.254,40.411-1.854,86.585,24.093,103.365c20.237,13.086,56.063,5.767,68.392-10.881
		c15.286-20.642,10.65-58.644,13.989-92.484C590.521,95.64,594.489,173.907,587.596,235.47z M69.996,249.459
		c8.549,0,17.098,0,25.647,0c0-4.145,0-8.29,0-12.435c-8.549,0-17.098,0-25.647,0C69.996,241.169,69.996,245.314,69.996,249.459z
		 M124.398,249.459c8.808,0,17.616,0,26.424,0c0-4.145,0-8.29,0-12.435c-8.808,0-17.616,0-26.424,0
		C124.398,241.169,124.398,245.314,124.398,249.459z M181.132,249.459c8.549,0,17.098,0,25.647,0c0-4.145,0-8.29,0-12.435
		c-8.549,0-17.098,0-25.647,0C181.132,241.169,181.132,245.314,181.132,249.459z M237.866,249.459c8.549,0,17.098,0,25.646,0
		c0-4.145,0-8.29,0-12.435c-8.549,0-17.098,0-25.646,0C237.866,241.169,237.866,245.314,237.866,249.459z M292.269,249.459
		c8.808,0,17.616,0,26.424,0c0-4.145,0-8.29,0-12.435c-8.808,0-17.616,0-26.424,0C292.269,241.169,292.269,245.314,292.269,249.459z
		 M349.002,249.459c8.29,0,16.58,0,24.87,0c0-4.145,0-8.29,0-12.435c-8.29,0-16.58,0-24.87,0
		C349.002,241.169,349.002,245.314,349.002,249.459z M404.959,249.459c8.549,0,17.098,0,25.647,0c0-4.145,0-8.29,0-12.435
		c-8.55,0-17.099,0-25.647,0C404.959,241.169,404.959,245.314,404.959,249.459z M461.693,249.459c8.03,0,16.062,0,24.093,0
		c0-4.145,0-8.29,0-12.435c-8.031,0-16.062,0-24.093,0C461.693,241.169,461.693,245.314,461.693,249.459z M516.096,249.459
		c8.809,0,17.615,0,26.424,0c0-4.145,0-8.29,0-12.435c-8.809,0-17.615,0-26.424,0C516.096,241.169,516.096,245.314,516.096,249.459z
		 M62.224,282.877c0,0.777,0,1.555,0,2.332c0.185,4.648-0.242,10.417,0,15.543c0.194,4.093-0.767,11.596,3.886,11.658
		c3.464-5.862,0.777-17.875,3.108-24.87c24.098,0.513,50.25-1.029,73.055,0.777c1.378,7.081-2.875,21.45,2.332,24.092
		c3.49-5.836,0.438-18.215,3.109-24.87c24.357,0.513,50.768-1.029,73.832,0.777c1.378,7.081-2.875,21.45,2.331,24.092
		c3.601-5.725,0.131-18.521,3.109-24.87c24.357,0.513,50.769-1.029,73.832,0.777c1.378,7.081-2.875,21.45,2.331,24.092
		c3.771-5.555-0.217-18.87,3.109-24.87c24.356,0.513,50.769-1.029,73.832,0.777c1.378,7.081-2.875,21.45,2.332,24.092
		c3.979-5.346-0.584-19.234,3.107-24.87c24.357,0.513,50.77-1.029,73.832,0.777c1.379,7.081-2.875,21.45,2.332,24.092
		c4.091-5.235-0.762-19.413,3.108-24.87c24.093,0.518,50.257-1.036,73.055,0.777c0.061,3.421-0.077,8.386,0,13.211
		c0.062,3.919-2.043,11.434,3.109,10.881c4.199-1.4,2.331-8.266,2.331-13.212c0-5.211,0-11.18,0-15.544
		C384.248,282.087,222.499,283.22,62.224,282.877z M63.001,320.959c0,0.777,0,1.554,0,2.332c0.437,11.166-0.58,26.314,0,37.305
		c0.142,2.685-2.092,9.998,3.109,9.326c3.472-5.596,0.82-17.314,3.108-24.093c24.093,0.519,50.257-1.036,73.055,0.777
		c1.381,6.811-2.872,20.886,2.332,23.315c3.472-5.596,0.495-17.64,3.109-24.093c24.352,0.519,50.775-1.036,73.832,0.777
		c1.381,6.811-2.872,20.886,2.331,23.315c3.608-5.459,0.143-17.991,3.109-24.093c24.352,0.519,50.775-1.036,73.832,0.777
		c1.381,6.811-2.872,20.886,2.331,23.315c3.775-5.293-0.211-18.346,3.109-24.093c24.356,0.513,50.769-1.029,73.832,0.777
		c1.381,6.811-2.872,20.886,2.332,23.315c3.985-5.081-0.586-18.72,3.107-24.093c24.357,0.513,50.77-1.029,73.832,0.777
		c1.382,6.811-2.871,20.886,2.332,23.315c4.1-4.967-0.771-18.904,3.108-24.093c24.093,0.519,50.257-1.036,73.055,0.777
		c1.702,6.415-3.632,22.244,3.109,23.315c4.213-0.744,2.273-7.327,2.331-10.881c0.151-9.502,0.141-18.403,0-27.201
		c-0.058-3.572,2.128-11.253-3.108-10.88c-5.199,2.832-0.954,15.108-2.332,21.761c-24.611-0.518-51.293,1.035-74.609-0.777
		c-1.367-6.405,2.852-18.396-2.331-20.984c-4.028,4.003,0.402,16.464-2.332,21.761c-24.61-0.518-51.293,1.035-74.609-0.777
		c-1.367-6.405,2.852-18.396-2.33-20.984c-4.028,4.003,0.402,16.464-2.332,21.761c-24.611-0.518-51.293,1.035-74.609-0.777
		c-1.367-6.405,2.852-18.396-2.332-20.984c-3.552,4.219-0.572,14.971-1.554,21.761c-24.87-0.518-51.812,1.035-75.386-0.777
		c-1.367-6.405,2.852-18.396-2.332-20.984c-3.553,4.219-0.573,14.971-1.554,21.761c-24.875-0.513-51.805,1.029-75.386-0.777
		c-1.368-6.405,2.852-18.396-2.332-20.984c-3.553,4.219-0.573,14.971-1.555,21.761c-24.616-0.513-51.287,1.029-74.609-0.777
		c0.846-5.379,2.452-17.901-1.554-20.984C65.074,320.959,64.037,320.959,63.001,320.959z M63.001,377.693c0,0.777,0,1.555,0,2.332
		c0.281,11.932-0.373,27.877,0,39.636c0.093,2.944-2.18,10.472,3.109,10.103c3.472-5.594,0.82-17.313,3.108-24.092
		c24.093,0.518,50.257-1.035,73.055,0.777c1.381,6.811-2.872,20.887,2.332,23.314c3.472-5.594,0.495-17.639,3.109-24.092
		c24.352,0.518,50.775-1.035,73.832,0.777c1.381,6.811-2.872,20.887,2.331,23.314c3.608-5.459,0.143-17.99,3.109-24.092
		c24.352,0.518,50.775-1.035,73.832,0.777c1.381,6.811-2.872,20.887,2.331,23.314c3.775-5.291-0.211-18.344,3.109-24.092
		c24.356,0.514,50.769-1.029,73.832,0.777c1.381,6.811-2.872,20.887,2.332,23.314c3.985-5.08-0.586-18.719,3.107-24.092
		c24.357,0.514,50.77-1.029,73.832,0.777c1.382,6.811-2.871,20.887,2.332,23.314c4.1-4.967-0.771-18.904,3.108-24.092
		c24.093,0.518,50.257-1.035,73.055,0.777c1.702,6.416-3.632,22.244,3.109,23.314c4.228-1.014,2.311-7.873,2.331-11.657
		c0.055-10.096,0.049-19.537,0-28.755c-0.021-3.768,2.217-11.781-3.108-11.658c-4.137,0.529-2.266,6.723-2.332,10.881
		c-0.07,4.39,0.055,9.635,0,13.212c-24.611-0.518-51.293,1.036-74.609-0.777c-1.381-6.812,2.872-20.886-2.331-23.315
		c-4.047,4.762,0.421,18.037-2.332,24.093c-24.61-0.518-51.293,1.036-74.609-0.777c-1.381-6.812,2.873-20.886-2.33-23.315
		c-4.048,4.762,0.42,18.037-2.332,24.093c-24.611-0.518-51.293,1.036-74.609-0.777c-1.381-6.812,2.871-20.886-2.332-23.315
		c-3.564,4.984-0.562,16.534-1.554,24.093c-24.87-0.518-51.812,1.036-75.386-0.777c-1.381-6.812,2.872-20.886-2.332-23.315
		c-3.565,4.984-0.564,16.534-1.554,24.093c-24.875-0.513-51.805,1.029-75.386-0.777c-1.381-6.812,2.872-20.886-2.332-23.315
		c-4.083,4.725,0.47,18.086-2.332,24.093c-24.357-0.513-50.768,1.028-73.832-0.777c1.002-6.292,2.19-19.208-1.554-23.315
		C65.074,377.693,64.037,377.693,63.001,377.693z M63.001,437.536c0,0.777,0,1.555,0,2.331c0.144,12.197-0.191,28.401,0,40.414
		c0.051,3.204-2.254,11.021,3.109,10.88c3.461-6.382,0.687-19.001,3.108-26.424c24.352,0,48.703,0,73.055,0
		c0,3.855,0,9.223,0,13.989c0,4.703-1.837,11.337,2.332,12.435c3.586-6.258,0.178-19.51,3.109-26.424
		c24.352,0.518,50.775-1.035,73.832,0.777c0.019,3.859-0.025,9.301,0,13.989c0.024,4.493-1.838,10.768,2.331,11.657
		c3.768-6.077-0.186-19.874,3.109-26.424c24.352,0.518,50.775-1.035,73.832,0.777c0.02,3.859-0.024,9.301,0,13.989
		c0.024,4.493-1.838,10.768,2.331,11.657c3.859-5.985-0.357-20.046,3.109-26.424c24.356,0.513,50.769-1.028,73.832,0.777
		c0.02,3.859-0.025,9.301,0,13.989c0.023,4.493-1.839,10.768,2.332,11.657c4.061-5.782-0.703-20.391,3.107-26.424
		c24.357,0.513,50.77-1.028,73.832,0.777c0.02,3.859-0.024,9.301,0,13.989c0.024,4.493-1.838,10.768,2.332,11.657
		c4.166-5.677-0.869-20.557,3.108-26.424c24.352,0,48.703,0,73.055,0c0.022,3.894-0.028,9.478,0,14.767
		c0.022,4.175-2.116,11.963,3.109,11.657c4.231-1.264,2.331-8.333,2.331-12.435c0-10.491,0.052-19.953,0-29.532
		c-0.021-3.798,2.255-11.652-3.108-11.658c-4.137,0.53-2.266,6.723-2.332,10.881c-0.07,4.39,0.055,9.635,0,13.212
		c-24.611-0.518-51.293,1.035-74.609-0.777c-1.381-6.811,2.872-20.887-2.331-23.315c-4.047,4.762,0.421,18.037-2.332,24.093
		c-24.61-0.518-51.293,1.035-74.609-0.777c-1.381-6.811,2.873-20.887-2.33-23.315c-4.048,4.762,0.42,18.037-2.332,24.093
		c-24.611-0.518-51.293,1.035-74.609-0.777c-1.381-6.811,2.871-20.887-2.332-23.315c-3.564,4.984-0.562,16.534-1.554,24.093
		c-24.87-0.518-51.812,1.035-75.386-0.777c-1.381-6.811,2.872-20.887-2.332-23.315c-4.083,4.726,0.47,18.086-2.332,24.093
		c-24.616-0.514-51.287,1.029-74.609-0.777c-1.381-6.811,2.872-20.887-2.332-23.315c-3.565,4.984-0.564,16.534-1.555,24.093
		c-24.616-0.514-51.287,1.029-74.609-0.777c1.002-6.292,2.19-19.209-1.554-23.315C65.074,437.536,64.037,437.536,63.001,437.536z
		 M63.778,499.711c-1.915,6.893-1.541,16.075-1.555,24.869c160.358,0,320.714,0,481.073,0c-0.062-3.663,0.08-8.975,0-13.989
		c-0.063-3.944,2.062-11.377-3.108-10.88c-5.184,2.588-0.964,14.579-2.332,20.983c-24.616-0.514-51.286,1.029-74.609-0.777
		c-1.354-6.157,2.835-17.861-2.331-20.206c-4.021,3.751,0.395,15.938-2.332,20.983c-24.615-0.514-51.286,1.029-74.609-0.777
		c-1.354-6.157,2.836-17.861-2.33-20.206c-4.021,3.751,0.395,15.938-2.332,20.983c-24.615-0.514-51.287,1.029-74.609-0.777
		c-1.355-6.157,2.836-17.861-2.332-20.206c-4.02,3.751,0.395,15.938-2.331,20.983c-24.616-0.514-51.287,1.029-74.609-0.777
		c-1.355-6.157,2.835-17.861-2.332-20.206c-4.02,3.751,0.395,15.938-2.332,20.983c-24.616-0.514-51.287,1.029-74.609-0.777
		c-1.356-6.157,2.835-17.861-2.332-20.206c-4.021,3.751,0.395,15.938-2.332,20.983c-24.357-0.513-50.768,1.029-73.832-0.777
		c0.324-4.856,3.523-18.972-2.332-20.206C64.814,499.711,64.296,499.711,63.778,499.711z"/>
</g>
</svg>
