<?xml version="1.0" encoding="utf-8"?>
<!-- Generator: Adobe Illustrator 15.0.2, SVG Export Plug-In . SVG Version: 6.00 Build 0)  -->
<!DOCTYPE svg PUBLIC "-//W3C//DTD SVG 1.1//EN" "http://www.w3.org/Graphics/SVG/1.1/DTD/svg11.dtd">
<svg version="1.1" id="Layer_1" xmlns="http://www.w3.org/2000/svg" xmlns:xlink="http://www.w3.org/1999/xlink" x="0px" y="0px"
	 width="612px" height="792px" viewBox="0 0 612 792" enable-background="new 0 0 612 792" xml:space="preserve">
<g>
	<path fill-rule="evenodd" clip-rule="evenodd" d="M303.979,229.998c0.667,0,1.333,0,2,0c37.04,19.007,79.225,38.552,119.984,56.993
		c11.365,5.142,32.848,8.641,30.996,25.997c-91.03,2.395-206.493,3.356-303.961,0c-3.42-10.236,5.433-13.697,11.999-16.998
		C209.321,273.705,259.988,252.958,303.979,229.998z"/>
	<path fill-rule="evenodd" clip-rule="evenodd" d="M182.994,318.987c81.323,0,162.647,0,243.969,0c2.16,4.839,0.46,13.539,1,19.998
		c-82.323,0-164.646,0-246.969,0c0-5.666,0-11.332,0-16.998C181.854,321.18,181.588,319.248,182.994,318.987z"/>
	<path fill-rule="evenodd" clip-rule="evenodd" d="M194.992,343.984c8.666,0,17.331,0,25.997,0
		c1.667,48.999,3.61,103.036,3.999,149.981c-44.253,7.686-33.996-33.919-33.996-73.99c0-29.478,1.733-56.886,3-72.991
		C193.907,345.564,193.827,344.152,194.992,343.984z"/>
	<path fill-rule="evenodd" clip-rule="evenodd" d="M285.98,343.984c1.553,49.774,3.632,99.022,4,149.981
		c-11.709-0.623-25.938,1.274-35.996-1c2.445-48.881,1.215-101.438,5-148.981C267.983,343.984,276.982,343.984,285.98,343.984z"/>
	<path fill-rule="evenodd" clip-rule="evenodd" d="M351.973,344.984c-0.033,50.692,1.801,99.52,3.999,147.981
		c-10.657,1.674-23.869,0.794-35.995,1c0.577-51.083-0.396-103.716,4.999-149.981C333.716,344.577,344.873,342.751,351.973,344.984z
		"/>
	<path fill-rule="evenodd" clip-rule="evenodd" d="M389.968,343.984c28.762-5.929,25.996,16.955,26.997,41.995
		c1.297,32.461,2.987,79.405,2.999,107.986c-11.709-0.623-25.938,1.274-35.995-1c1.71-48.283,2.184-97.804,3.999-145.981
		C387.924,345.273,388.711,344.394,389.968,343.984z"/>
	<path fill-rule="evenodd" clip-rule="evenodd" d="M153.998,498.965c68.42,0,149.665,0,225.971,0
		c35.599,0,88.627-10.531,77.99,33.995c-70.074,0-153.182,0-230.971,0c-32.829,0-82.191,9.216-73.991-30.996
		C152.912,500.545,152.833,499.133,153.998,498.965z"/>
</g>
</svg>
