<?xml version="1.0" encoding="utf-8"?>
<!-- Generator: Adobe Illustrator 15.0.2, SVG Export Plug-In . SVG Version: 6.00 Build 0)  -->
<!DOCTYPE svg PUBLIC "-//W3C//DTD SVG 1.1//EN" "http://www.w3.org/Graphics/SVG/1.1/DTD/svg11.dtd">
<svg version="1.1" id="Layer_1" xmlns="http://www.w3.org/2000/svg" xmlns:xlink="http://www.w3.org/1999/xlink" x="0px" y="0px"
	 width="612px" height="792px" viewBox="0 0 612 792" enable-background="new 0 0 612 792" xml:space="preserve">
<path fill-rule="evenodd" clip-rule="evenodd" d="M297.434,224.305c2.134,9.588,11.26,4.022,16.389,10.925
	c22.244-7.771,40.354,8.697,51.896,23.216c-4.931,7.13,1.824,10.56,0,16.388c16.057-3.822,32.361,10.083,27.313,27.313
	c2.29,3.172,5.154,5.771,6.828,9.56c-1.391,20.952,13.036,44.119-16.389,45.067c-7.641,4.649-10.148,14.434-17.753,19.12
	c-14.458-6.097-17.652,9.73-27.313,2.731c-45.032,38.838,47.763,169.373-45.067,152.955c-1.019-60.416,14.324-142.963-31.41-162.515
	c-13.548,7.359-26.418,2.757-40.97,0c-10.303-19.897-2.739-43.023,24.582-27.313c-3.803-5.757-13.679-5.439-15.022-13.657
	c-2.63,1.922-5.495,3.609-9.56,4.097c-10.856-2.482-20.266-23.305-6.828-30.044c-13.441-22.008,8.876-35.396,15.022-50.53
	c7.174-1.476,13.26-4.039,21.851-4.097c1.862-5.421,6.493-8.074,6.828-15.022C274.656,230.601,278.69,224.285,297.434,224.305z
	 M279.68,373.163c6.631,8.847,13.413,17.542,19.12,27.313c0-6.828,0-13.656,0-20.485C289.579,380.178,288.47,365.316,279.68,373.163
	z"/>
</svg>
