<?xml version="1.0" encoding="utf-8"?>
<!-- Generator: Adobe Illustrator 15.0.2, SVG Export Plug-In . SVG Version: 6.00 Build 0)  -->
<!DOCTYPE svg PUBLIC "-//W3C//DTD SVG 1.1//EN" "http://www.w3.org/Graphics/SVG/1.1/DTD/svg11.dtd">
<svg version="1.1" id="Layer_1" xmlns="http://www.w3.org/2000/svg" xmlns:xlink="http://www.w3.org/1999/xlink" x="0px" y="0px"
	 width="612px" height="792px" viewBox="0 0 612 792" enable-background="new 0 0 612 792" xml:space="preserve">
<path fill-rule="evenodd" clip-rule="evenodd" d="M422.97,259.998c0.307,49.573,3.995,102.717,2,155.98
	c-0.626,16.72,0.907,35.111-2.999,48.994c-7.383,26.238-44.152,51.28-73.991,48.994c-24.159-1.852-42.13-24.277-29.996-51.994
	c10.806-24.684,46.061-43.832,82.989-38.994c-0.305-40.024,0.822-81.479-1-119.986c-31.329,0-62.658,0-93.988,0
	c-0.168,44.912,2.516,82.754,0,126.984c-0.746,13.133-0.616,27.727-4.999,37.996c-11.946,27.99-88.72,64.286-103.987,19.997
	c-11.495-33.349,30.771-67.499,61.992-70.991c7.856-0.879,16.002,0.477,22.997,1c-1.42-38.868,1.887-80.058,0-119.985
	c-0.56-11.842-1.32-36.494,35.837-36.53C351.897,260.695,388.564,261.586,422.97,259.998z"/>
</svg>
