<?xml version="1.0" encoding="utf-8"?>
<!-- Generator: Adobe Illustrator 15.0.2, SVG Export Plug-In . SVG Version: 6.00 Build 0)  -->
<!DOCTYPE svg PUBLIC "-//W3C//DTD SVG 1.1//EN" "http://www.w3.org/Graphics/SVG/1.1/DTD/svg11.dtd">
<svg version="1.1" id="Layer_1" xmlns="http://www.w3.org/2000/svg" xmlns:xlink="http://www.w3.org/1999/xlink" x="0px" y="0px"
	 width="612px" height="792px" viewBox="0 0 612 792" enable-background="new 0 0 612 792" xml:space="preserve">
<path fill-rule="evenodd" clip-rule="evenodd" d="M290.985,273.989c6.5-0.832,7.106-7.558,15.998-5.999
	c5.989,13.659,6.638,27.302,12.998,40.995c5.551,11.949,13.503,22.583,17.998,35.996c4.625,13.802,5.244,29.48,8.999,44.994
	c4.483,18.525,3.666,43.057,16.997,51.994c32.023-0.18,52.908,4.406,63.992,24.996c2.531,4.703,4.2,10.099,5.26,15.992
	c0.898,25.709,0.231,55.348-0.26,82.996c-52.515,0.936-101.01,4.849-110.986-37.996c-2.738-11.758-1.51-21.022-11.999-26.996
	c0,21.664,0,43.328,0,64.992c-64.617,5.763-106.236-5.248-105.986-61.992c0.063-14.34,3.444-25.509,8.999-35.996
	c2.639-4.981,8.748-10.471,8.999-14.998c0.441-7.966-8.854-21.053-11.999-31.996c-3.67-12.768-3.633-26.823-6.999-36.995
	c-3.743-11.31-12.916-15.573-16.998-25.997c-6.732-17.192,4.301-33.586,4-52.994c-0.237-15.293-11.021-36.741,2.999-51.993
	c-2.223-13.521,2.34-27.203,6-37.995c12.788-11.204,14.763,8.688,21.997,9.999c1.002,0.181,6.68-4.41,10.998-4
	c8.053,0.766,17.3,13.318,24.997,19.998C270.71,252.898,283.175,259.269,290.985,273.989z M248.99,265.99
	c-6.739-6.885-14.117-13-21.997-23.997c-6.377-8.899-28.706-41.114-27.996-7.999c4.531,0.134,6.886,2.446,10.998,3
	c22.136,33.191,52.271,58.381,59.993,105.987c-11.382-18.578-17.417-39.297-30.996-55.993c-6.223-7.65-13.889-15.613-18.998-23.997
	c-5.319-8.728-8.899-21.625-21.997-21.997c-0.867,9.543,4.298,18.351,1,26.997c-3.298-1.368-1.316-8.016-6-7.999
	c-2.668,7.373-4.16,27.191,1,32.996c4.434-4.899,4.066-14.598,6.999-20.998c16.211-6.511,24.984,22.391,30.996,35.996
	c7.549,17.081,16.57,31.866,19.998,44.994c-22.282-17.379-22.167-57.157-44.994-73.991c0.258,36.354,18.627,69.522,29.996,101.987
	c11.775,33.626,19.148,66.321,44.994,88.989c7.392,6.482,16.779,9.95,23.997,15.998c6.622,5.548,10.628,15.244,17.998,20.997
	c6.69-25.972,21.923-43.401,35.995-61.992c-14.943-5.045-9.667-24.115-13.998-40.995c-2.556-9.956-8.43-19.405-9.999-27.996
	c-1.48-8.107-0.214-20.053-2-25.997c-7.605-25.317-30.245-48.353-28.996-76.99c-5.358,0.308-8.783,2.549-10.999,5.999
	c4.222,22.108,16.314,36.346,23.997,54.993c-22.172-12.729-20.908-44.673-35.995-63.992c-7.274-9.314-18.256-16.443-26.997-23.997
	c-8.179-7.069-16.806-20.573-28.996-17.998c7.374,24.044,31.95,36.096,44.994,57.993c9.799,16.448,16.432,35.933,26.997,49.994
	C273.246,320.275,272.851,290.367,248.99,265.99z M190.998,354.979c2.809,8.833,11.718,16.068,14.998,25.997
	c3.357,10.165,3.942,22.558,6.999,33.996c3.004,11.242,6.367,21.082,10.998,29.996c5.085,9.786,12.969,17.245,15.998,25.997
	c4.917,14.203-3.999,18.465-3.999,29.996c0,42.135,60.973,9.539,57.992-11.998c-0.814-5.891-10.51-9.203-14.998-12.999
	c-24.577-20.786-38.252-54.001-45.994-91.988c-7.745-1.726-10.062,7.241-14.998,5c0.408-5.258,5.031-6.301,5-11.999
	c-5.658-13.342-19.127-24.198-15.998-42.995c7.047,14.617,11.666,31.662,22.997,41.995c-10.431-28.564-21.063-56.927-31.996-84.989
	C197.773,314.286,183.686,331.991,190.998,354.979z"/>
</svg>
