<?xml version="1.0" encoding="utf-8"?>
<!-- Generator: Adobe Illustrator 15.0.2, SVG Export Plug-In . SVG Version: 6.00 Build 0)  -->
<!DOCTYPE svg PUBLIC "-//W3C//DTD SVG 1.1//EN" "http://www.w3.org/Graphics/SVG/1.1/DTD/svg11.dtd">
<svg version="1.1" id="Layer_1" xmlns="http://www.w3.org/2000/svg" xmlns:xlink="http://www.w3.org/1999/xlink" x="0px" y="0px"
	 width="612px" height="792px" viewBox="0 0 612 792" enable-background="new 0 0 612 792" xml:space="preserve">
<g>
	<path fill-rule="evenodd" clip-rule="evenodd" fill="#FFFFFF" d="M169,229c98.321,0,196.642,0,294.963,0
		c0,99.654,0,199.309,0,298.963c-98.655,0-197.307,0-295.963,0c0-98.655,0-197.307,0-295.963
		C167.914,230.581,167.835,229.168,169,229z M210.994,284.993c-11.904,13.721-17.943,22.338-25.996,43.994
		c-38.013,102.226,41.922,192.976,133.983,192.976c75.436,0,137.82-55.994,142.981-132.983
		c3.084-45.998-17.182-83.679-35.995-104.987c-24.366-27.597-65.849-52.676-121.984-46.994
		C259.882,241.463,230.466,262.552,210.994,284.993z"/>
	<path fill-rule="evenodd" clip-rule="evenodd" d="M303.983,236.999c56.136-5.682,97.618,19.397,121.984,46.994
		c18.813,21.308,39.079,58.989,35.995,104.987c-5.161,76.989-67.546,132.983-142.981,132.983
		c-92.062,0-171.996-90.75-133.983-192.976c8.053-21.656,14.092-30.273,25.996-43.994
		C230.466,262.552,259.882,241.463,303.983,236.999z M211.994,287.993c-20.646,24.085-36.819,60.183-32.995,106.987
		c6.991,85.575,100.939,147.666,188.976,114.985c38.713-14.371,70.537-46.362,83.99-83.989
		c14.895-41.66,4.898-96.047-17.998-128.984c-21.176-30.461-65.331-62.219-128.984-56.993
		C263.351,243.417,232.758,263.771,211.994,287.993z"/>
	<path fill-rule="evenodd" clip-rule="evenodd" d="M359.976,249.998c0.156,3.821-0.051,7.281-1.999,8.999
		c-6.177,4.424-14.172,5.483-21.998,7.999c-7.009,2.254-15.508,6.749-22.997,6.999c-14.771,0.495-32.388-8.063-47.993,0
		c-3.061-3.939-1.704-12.294-2-18.998C285.422,242.324,333.236,237.915,359.976,249.998z"/>
	<path fill-rule="evenodd" clip-rule="evenodd" d="M189.997,336.986c11.319-37.008,35.205-61.45,65.992-78.99
		c11.186,14.722-1.066,20.503-8.999,28.996c-8.142,8.716-13.881,19.772-17.998,27.997
		C213.437,319.764,202.788,329.446,189.997,336.986z"/>
	<path fill-rule="evenodd" clip-rule="evenodd" d="M398.971,332.987c-14.698,5.965-30.18,11.148-43.994,17.998
		c-17.118-8.878-30.965-21.028-46.994-30.996c2.243-13.088,2.466-28.197,4.999-40.995c13.761-1.478,29.77-14.86,46.994-12.999
		c11.752,1.271,39.539,18.687,42.995,28.997C406.557,305.691,400.503,319.755,398.971,332.987z"/>
	<path fill-rule="evenodd" clip-rule="evenodd" d="M423.968,293.992c19.521,21.807,31.562,51.096,30.996,92.989
		c-7.999,0-15.998,0-23.997,0c-6.534-20.129-15.134-38.192-27.996-51.994c2.547-11.118,4.814-22.515,3.999-36.996
		C411.043,295.065,416.63,293.653,423.968,293.992z"/>
	<path fill-rule="evenodd" clip-rule="evenodd" d="M254.989,345.985c-2.752,16.246-6.96,31.036-7.999,48.994
		c-8.831,10.864-22.459,22.16-33.996,26.997c-3.903-20.326-32.106-52.987-25.996-72.992c4.825-15.797,26.552-18.56,38.995-28.996
		C237.548,326.764,245.949,336.694,254.989,345.985z"/>
	<path fill-rule="evenodd" clip-rule="evenodd" d="M350.978,354.984c-2.222,18.442-2.808,38.521-6,55.993
		c-8.864,8.329-30.427,22.925-47.993,21.997c-9.958-0.526-18.376-7.607-26.997-14.998c-5.921-5.076-16.987-13.968-18.998-21.998
		c-3.862-15.427,8.289-32.272,7.999-48.994c11.856-4.72,30.81-24.7,43.995-22.997C319.827,326.163,335.694,348.333,350.978,354.984z
		"/>
	<path fill-rule="evenodd" clip-rule="evenodd" d="M183.998,365.983c12.728,20.282,26.034,67.251,42.994,91.988
		c6.699,9.771,10.104,12.314,0,19.998C200.108,454.274,177.868,416.119,183.998,365.983z"/>
	<path fill-rule="evenodd" clip-rule="evenodd" d="M453.964,390.979c-4.106,38.555-19.236,66.086-41.994,85.989
		c-9.399,0.734-15.887-1.445-21.997-3.999c5.833-12.946,1.235-26.439,4.999-37.995c1.732-5.32,11.803-13.33,17.998-19.998
		c8.162-8.785,13.603-16.3,18.997-23.997C439.3,390.979,446.632,390.979,453.964,390.979z"/>
	<path fill-rule="evenodd" clip-rule="evenodd" d="M390.973,432.975c-0.18,14.152-1.949,26.715-5,37.995
		c-9.025,8.886-29.098,25.112-46.994,24.997c-15.955-0.104-35.35-17.346-49.994-20.998c1.63-14.035,5.249-26.08,8.999-37.994
		c20.374-2.957,34.911-11.75,49.994-19.998C362.408,422.21,376.359,427.923,390.973,432.975z"/>
	<path fill-rule="evenodd" clip-rule="evenodd" d="M333.979,499.967c-0.775,7.223-4.229,11.77-8.999,14.998
		c-26.418,1.609-56.448-8.155-75.99-19.998c-10.109-6.126-26.757-13.941-10.999-21.997c13.09,2.084,24.961,7.818,37.995,7.999
		c4.146,0.057,7.913-1.598,11.999-1C304.835,482.432,319.336,496.266,333.979,499.967z"/>
</g>
</svg>
